<svg width="41" height="50" viewBox="0 0 41 50" fill="none" xmlns="http://www.w3.org/2000/svg">
<path d="M35.5756 9.375H5.08223C4.40828 9.375 3.76194 9.70424 3.28538 10.2903C2.80883 10.8763 2.54111 11.6712 2.54111 12.5V37.5C2.54111 38.3288 2.80883 39.1237 3.28538 39.7097C3.76194 40.2958 4.40828 40.625 5.08223 40.625H35.5756C36.2496 40.625 36.8959 40.2958 37.3725 39.7097C37.849 39.1237 38.1168 38.3288 38.1168 37.5V12.5C38.1168 11.6712 37.849 10.8763 37.3725 10.2903C36.8959 9.70424 36.2496 9.375 35.5756 9.375ZM32.7804 12.5L20.3289 23.0938L7.87746 12.5H32.7804ZM5.08223 37.5V13.9219L19.6047 26.2812C19.8174 26.4627 20.0701 26.5599 20.3289 26.5599C20.5878 26.5599 20.8405 26.4627 21.0532 26.2812L35.5756 13.9219V37.5H5.08223Z" fill="black"/>
</svg>
