<svg width="50" height="50" viewBox="0 0 50 50" fill="none" xmlns="http://www.w3.org/2000/svg">
<path d="M18.5937 39.7811V5.83317M18.5521 5.729L6.51041 9.84359C6.28316 9.90463 6.08327 10.0408 5.9433 10.23C5.80333 10.4191 5.73152 10.6501 5.73958 10.8853V43.1769C5.73958 43.4532 5.84933 43.7181 6.04468 43.9135C6.24003 44.1088 6.50498 44.2186 6.78125 44.2186H7.125L18.5833 39.7811L31.3958 44.2707L43.4375 40.104C43.6647 40.043 43.8646 39.9068 44.0046 39.7176C44.1446 39.5285 44.2164 39.2975 44.2083 39.0623V6.77067C44.2083 6.4944 44.0986 6.22945 43.9032 6.0341C43.7079 5.83875 43.4429 5.729 43.1667 5.729L42.8229 5.80192L31.3646 10.1665L18.5521 5.729ZM31.375 10.2186V44.2707V10.2186Z" stroke="black" stroke-width="2" stroke-linecap="round" stroke-linejoin="round"/>
</svg>
