<svg width="113" height="159" viewBox="0 0 113 159" fill="none" xmlns="http://www.w3.org/2000/svg">
<g clip-path="url(#clip0_22_104)">
<path d="M112.513 31.1685L102.281 145.842L56.2858 158.598L10.4176 145.86L0.195923 31.1685H112.513Z" fill="#E44D26"/>
<path d="M56.3544 148.848L93.5206 138.54L102.264 40.5459H56.3544V148.848Z" fill="#F16529"/>
<path d="M36.4631 68.6792H56.3544V54.6128H21.0964L21.4327 58.3865L24.8889 97.1499H56.3544V83.0835H37.7482L36.4631 68.6792ZM39.6321 104.183H25.5171L27.4869 126.27L56.2897 134.268L56.3544 134.251V119.616L56.2928 119.632L40.6333 115.402L39.6321 104.183Z" fill="#EBEBEB"/>
<path d="M10.6457 0H17.7913V7.06251H24.3279V0H31.474V21.387H24.3284V14.2254H17.7917V21.387H10.6461V0H10.6457ZM40.8702 7.09246H34.5805V0H54.3107V7.09246H48.0171V21.387H40.8715V7.09246H40.8711H40.8702ZM57.4419 0H64.8926L69.4758 7.51484L74.0546 0H81.5083V21.387H74.3918V10.7865L69.4758 18.3907H69.3525L64.4334 10.7865V21.387H57.4419V0ZM85.0644 0H92.2122V14.3179H102.261V21.387H85.0639V0H85.0644Z" fill="black"/>
<path d="M56.306 97.1499H73.6205L71.988 115.393L56.3056 119.628V134.262L85.1313 126.27L85.3426 123.893L88.6473 86.8607L88.9903 83.0835H56.306V97.1499ZM56.306 68.6449V68.6792H90.2697L90.5515 65.5177L91.1925 58.3865L91.5284 54.6128H56.306V68.6453V68.6449Z" fill="white"/>
</g>
<defs>
<clipPath id="clip0_22_104">
<rect width="112.709" height="159" fill="white"/>
</clipPath>
</defs>
</svg>
