<svg width="118" height="159" viewBox="0 0 118 159" fill="none" xmlns="http://www.w3.org/2000/svg">
<g clip-path="url(#clip0_22_86)">
<path d="M38.0133 122.914C38.0133 122.914 31.9361 126.441 42.3385 127.634C54.941 129.069 61.3815 128.863 75.2696 126.24C75.2696 126.24 78.9211 128.525 84.0199 130.504C52.8873 143.82 13.5598 129.732 38.0133 122.914ZM34.2089 105.537C34.2089 105.537 27.3927 110.572 37.8029 111.647C51.2651 113.033 61.8963 113.146 80.2929 109.611C80.2929 109.611 82.8374 112.185 86.8384 113.593C49.1967 124.578 7.27076 114.46 34.2089 105.537Z" fill="#5382A1"/>
<path d="M66.2804 76.0604C73.9518 84.8743 64.2649 92.8059 64.2649 92.8059C64.2649 92.8059 83.7431 82.771 74.7976 70.2045C66.4429 58.4863 60.0356 52.663 94.7211 32.5876C94.7211 32.5876 40.2765 46.1578 66.2804 76.0599" fill="#E76F00"/>
<path d="M107.456 135.767C107.456 135.767 111.954 139.464 102.503 142.326C84.5328 147.759 27.7085 149.399 11.9228 142.542C6.24852 140.079 16.8899 136.66 20.237 135.942C23.7278 135.187 25.723 135.328 25.723 135.328C19.4123 130.891 -15.0664 144.039 8.20965 147.804C71.6863 158.078 123.921 143.178 107.456 135.767ZM40.9354 87.5326C40.9354 87.5326 12.0315 94.3843 30.7002 96.8718C38.5824 97.9251 54.2958 97.687 68.9327 96.4628C80.8947 95.4564 92.9059 93.315 92.9059 93.315C92.9059 93.315 88.6881 95.1177 85.6365 97.1971C56.2846 104.901 -0.418106 101.317 15.9059 93.4368C29.7111 86.7771 40.9359 87.5326 40.9359 87.5326H40.9354ZM92.7867 116.457C122.625 100.983 108.829 86.1136 99.1996 88.1171C96.8392 88.607 95.7871 89.0316 95.7871 89.0316C95.7871 89.0316 96.6633 87.6622 98.3367 87.0694C117.386 80.3854 132.037 106.782 92.1871 117.237C92.1871 117.237 92.649 116.825 92.7867 116.457Z" fill="#5382A1"/>
<path d="M74.7976 0.170381C74.7976 0.170381 91.3224 16.6678 59.1248 42.0347C33.306 62.3839 53.2372 73.9864 59.1142 87.2426C44.0431 73.6725 32.9827 61.7264 40.4031 50.6083C51.2936 34.2869 81.4647 26.3741 74.7976 0.169922" fill="#E76F00"/>
<path d="M43.8677 158.386C72.5082 160.216 116.489 157.371 117.53 143.847C117.53 143.847 115.528 148.974 93.8605 153.046C69.4153 157.636 39.2658 157.101 21.3836 154.158C21.384 154.158 25.0443 157.182 43.8681 158.386" fill="#5382A1"/>
</g>
<defs>
<clipPath id="clip0_22_86">
<rect width="117.879" height="159" fill="white"/>
</clipPath>
</defs>
</svg>
