<svg width="159" height="159" viewBox="0 0 159 159" fill="none" xmlns="http://www.w3.org/2000/svg">
<path d="M8.91063 60.4333V65.6273H9.1425C9.60625 64.8986 10.2091 64.1698 10.9578 63.4212C11.7775 62.6223 12.7052 61.9421 13.7137 61.4006C16.2596 60.0174 19.1177 59.3103 22.0149 59.3468C24.4591 59.3253 26.8805 59.8178 29.1221 60.7925C31.3637 61.7672 33.3753 63.2022 35.0264 65.0046C36.6296 66.7668 37.8685 68.8338 38.743 71.2056C39.6241 73.5906 40.068 76.1412 40.068 78.884C40.068 81.6201 39.6374 84.1906 38.7827 86.5888C37.987 88.8974 36.7519 91.0302 35.1456 92.8693C33.5471 94.6711 31.594 96.1236 29.4084 97.1358C27.1559 98.1958 24.6185 98.7258 21.7764 98.7258C19.1396 98.7258 16.7215 98.176 14.5286 97.0961C12.459 96.1207 10.7018 94.5883 9.45388 92.6706H9.29488V116.242H0V60.4201L8.91063 60.4333ZM30.6141 78.884C30.6141 77.4331 30.3889 76.0021 29.9516 74.5777C29.5295 73.1908 28.8607 71.8914 27.9774 70.7418C27.0819 69.5902 25.9443 68.6493 24.645 67.9858C23.1755 67.262 21.5524 66.9051 19.9148 66.9457C18.3226 66.918 16.7488 67.2892 15.3369 68.0256C14.0217 68.7278 12.8525 69.6745 11.8919 70.8147C10.9305 71.9586 10.1933 73.2734 9.71887 74.6903C8.73662 77.4885 8.73662 80.5378 9.71887 83.336C10.1988 84.7404 10.9356 86.0434 11.8919 87.1785C12.847 88.3121 14.018 89.2445 15.3369 89.9212C16.6817 90.6168 18.2121 90.9746 19.9148 90.9746C21.47 91.0121 23.012 90.6796 24.4137 90.0047C25.8154 89.3298 27.0368 88.3316 27.9774 87.0923C28.8519 85.9595 29.5077 84.6676 29.945 83.2167C30.3783 81.813 30.6016 80.353 30.6075 78.884H30.6141ZM121.257 58.6512V99.8786C121.257 102.098 121.072 104.205 120.714 106.186C120.404 108.045 119.704 109.817 118.66 111.386C117.614 112.892 116.2 114.105 114.553 114.911C112.817 115.785 110.565 116.229 107.769 116.229C106.993 116.227 106.219 116.174 105.45 116.07C104.826 115.992 104.205 115.888 103.589 115.759L104.364 107.862C105.202 108.06 106.06 108.164 106.921 108.173C107.838 108.212 108.748 107.996 109.551 107.55C110.219 107.138 110.756 106.546 111.101 105.841C111.466 105.119 111.698 104.284 111.797 103.324C111.903 102.37 111.956 101.349 111.956 100.269V58.6512H121.257ZM152.951 70.3443C152.025 69.1751 150.865 68.2117 149.546 67.5155C148.098 66.7173 146.469 66.3065 144.816 66.323C143.319 66.323 141.954 66.6277 140.708 67.2505C140.124 67.5198 139.634 67.9592 139.303 68.5111C138.972 69.063 138.816 69.7019 138.853 70.3443C138.825 71.0067 139.009 71.6607 139.379 72.2113C139.748 72.7618 140.284 73.18 140.907 73.4051C142.272 74.0013 144.273 74.6108 146.909 75.2336C148.301 75.545 149.712 75.9557 151.136 76.4725C152.554 76.9826 153.852 77.665 155.012 78.5262C156.169 79.3741 157.133 80.458 157.841 81.7062C158.563 82.965 158.921 84.5086 158.921 86.3106C158.921 88.5896 158.497 90.5108 157.648 92.0876C156.787 93.6643 155.654 94.9363 154.237 95.9301C152.729 96.9445 151.043 97.6639 149.268 98.0501C147.35 98.4962 145.387 98.7207 143.418 98.7192C140.528 98.7192 137.663 98.18 134.971 97.1292C132.375 96.1663 130.039 94.6126 128.147 92.5911L134.275 86.8538C135.408 88.3037 136.855 89.4766 138.508 90.2836C140.161 91.0906 141.976 91.5104 143.816 91.5112C144.478 91.5112 145.167 91.4317 145.869 91.2793C146.543 91.1285 147.19 90.8785 147.79 90.5373C148.378 90.2123 148.874 89.7454 149.235 89.1792C149.61 88.5471 149.796 87.8205 149.771 87.0857C149.802 86.3799 149.616 85.6816 149.236 85.0856C148.857 84.4895 148.304 84.0244 147.651 83.7533C146.22 83.0908 144.087 82.4151 141.245 81.746C139.863 81.4383 138.504 81.0354 137.177 80.5402C135.913 80.0774 134.727 79.4251 133.659 78.6057C132.622 77.8039 131.774 76.7838 131.175 75.6178C130.512 74.242 130.193 72.7254 130.247 71.199C130.247 69.1386 130.671 67.3565 131.52 65.8592C132.348 64.3883 133.504 63.1279 134.898 62.1757C136.29 61.2151 137.86 60.5062 139.622 60.0425C141.393 59.5761 143.217 59.3422 145.048 59.3468C147.731 59.3468 150.354 59.8106 152.912 60.7381C155.469 61.6656 157.496 63.09 159 64.998L152.951 70.3443ZM98.0301 89.7622L103.575 88.0927L104.662 91.4383L99.1431 93.3132L102.568 98.176L99.6797 100.269L96.0758 95.4928L92.5645 100.137L89.7621 98.0037L93.1872 93.3132L87.6222 91.3125L88.7154 87.9602L94.3003 89.7556V83.9786H98.0368V89.7556L98.0301 89.7622ZM78.9037 72.2457C77.9939 70.1633 76.6314 68.3098 74.9155 66.8198C73.1521 65.3141 71.1106 64.1684 68.9066 63.4477C66.4912 62.6555 63.9623 62.2638 61.4204 62.2883C60.4399 62.2883 59.3468 62.3413 58.1278 62.4473C57.0656 62.5243 56.0138 62.7063 54.9875 62.9906L55.5308 51.1318H77.9365V42.7512H46.7063L45.7787 72.7426C46.6929 72.2944 47.6357 71.9071 48.601 71.5832C49.6722 71.2164 50.7573 70.8915 51.8539 70.6093C52.9774 70.3244 54.1166 70.1054 55.2658 69.9535C56.357 69.8039 57.4569 69.7264 58.5584 69.7216C60.0622 69.7216 61.5396 69.8872 62.9839 70.2251C64.4281 70.5563 65.7332 71.1526 66.8992 72.0072C68.052 72.8618 68.9994 73.9815 69.7215 75.3793C70.4503 76.7706 70.808 78.5328 70.808 80.6462C70.808 82.3025 70.543 83.7865 69.9931 85.1048C69.5012 86.3473 68.749 87.47 67.787 88.3975C66.8514 89.2804 65.7473 89.9654 64.5407 90.4115C63.282 90.8752 61.9702 91.1137 60.579 91.1137C58.0946 91.1137 55.9548 90.4512 54.1395 89.1328C52.3426 87.8274 50.9916 85.9999 50.2705 83.8991L50.1711 83.9388L43.4401 90.2458C44.7982 92.4652 46.5539 94.3268 48.7202 95.7976C51.8671 97.9441 55.7427 99.0173 60.3405 99.0173C62.9818 99.0313 65.6051 98.5828 68.0918 97.6923C70.4598 96.8816 72.6318 95.5838 74.4678 93.8825C76.3038 92.1811 77.763 90.1141 78.7514 87.8145C79.8114 85.4162 80.3414 82.6933 80.3414 79.6458C80.3414 76.8501 79.8644 74.3856 78.9104 72.2391L78.9037 72.2457Z" fill="black"/>
</svg>
