<svg width="35" height="56" viewBox="0 0 35 56" fill="none" xmlns="http://www.w3.org/2000/svg">
<path d="M17.5 10.5C17.9641 10.5 18.4093 10.6844 18.7374 11.0126C19.0656 11.3408 19.25 11.7859 19.25 12.25V19.25C19.25 19.7141 19.0656 20.1592 18.7374 20.4874C18.4093 20.8156 17.9641 21 17.5 21C17.0359 21 16.5908 20.8156 16.2626 20.4874C15.9344 20.1592 15.75 19.7141 15.75 19.25V12.25C15.75 11.7859 15.9344 11.3408 16.2626 11.0126C16.5908 10.6844 17.0359 10.5 17.5 10.5ZM31.5 38.5C31.5 42.213 30.025 45.774 27.3995 48.3995C24.774 51.025 21.213 52.5 17.5 52.5C13.787 52.5 10.226 51.025 7.6005 48.3995C4.975 45.774 3.5 42.213 3.5 38.5V17.5C3.5 13.787 4.975 10.226 7.6005 7.60051C10.226 4.975 13.787 3.5 17.5 3.5C21.213 3.5 24.774 4.975 27.3995 7.60051C30.025 10.226 31.5 13.787 31.5 17.5V38.5ZM17.5 0C12.8587 0 8.40752 1.84374 5.12563 5.12563C1.84374 8.40752 0 12.8587 0 17.5V38.5C0 43.1413 1.84374 47.5925 5.12563 50.8744C8.40752 54.1563 12.8587 56 17.5 56C22.1413 56 26.5925 54.1563 29.8744 50.8744C33.1563 47.5925 35 43.1413 35 38.5V17.5C35 12.8587 33.1563 8.40752 29.8744 5.12563C26.5925 1.84374 22.1413 0 17.5 0V0Z" fill="white"/>
</svg>
