<svg width="141" height="159" viewBox="0 0 141 159" fill="none" xmlns="http://www.w3.org/2000/svg">
<path d="M140.763 46.7725C140.762 44.1059 140.193 41.7496 139.042 39.7273C137.912 37.7387 136.219 36.072 133.949 34.7542C115.209 23.9228 96.4501 13.1246 77.7158 2.28227C72.6651 -0.640463 67.7681 -0.53391 62.7549 2.43078C55.2957 6.84027 17.95 28.2871 6.82143 34.7481C2.23838 37.4075 0.00826172 41.4774 0.00716016 46.7675C0 68.5499 0.00716016 90.3318 0 112.115C0.00110156 114.723 0.545824 117.033 1.64573 119.025C2.77649 121.074 4.49272 122.787 6.81537 124.134C17.9445 130.595 55.2951 152.04 62.7527 156.451C67.7681 159.417 72.6651 159.523 77.7174 156.6C96.4523 145.757 115.212 134.959 133.955 124.128C136.278 122.781 137.994 121.067 139.125 119.02C140.223 117.028 140.769 114.717 140.77 112.109C140.77 112.109 140.77 68.5555 140.763 46.7725Z" fill="#5C8DBC"/>
<path d="M70.6002 79.229L1.64572 119.025C2.77648 121.074 4.49271 122.787 6.81535 124.134C17.9444 130.595 55.2951 152.041 62.7527 156.451C67.7681 159.417 72.6651 159.523 77.7174 156.6C96.4522 145.757 115.212 134.959 133.955 124.128C136.278 122.781 137.994 121.067 139.125 119.02L70.6002 79.229Z" fill="#1A4674"/>
<path d="M50.1767 91.0171C54.1892 98.0385 61.7321 102.774 70.3849 102.774C79.0911 102.774 86.677 97.9783 90.6691 90.8818L70.6003 79.229L50.1767 91.0171Z" fill="#1A4674"/>
<path d="M140.763 46.7724C140.762 44.1059 140.193 41.7496 139.042 39.7273L70.6003 79.2289L139.125 119.02C140.223 117.028 140.769 114.717 140.77 112.109C140.77 112.109 140.77 68.5554 140.763 46.7724Z" fill="#1B598E"/>
<path d="M136.995 82.0733H131.64V87.4417H126.284V82.0733H120.93V76.7065H126.284V71.3391H131.64V76.7065H136.995V82.0733ZM117.456 82.0733H112.102V87.4417H106.747V82.0733H101.392V76.7065H106.747V71.3391H112.102V76.7065H117.456V82.0733Z" fill="white"/>
<path d="M90.6691 90.8818C86.677 97.9783 79.0911 102.774 70.3849 102.774C61.7321 102.774 54.1892 98.0385 50.1767 91.0171C48.1611 87.4939 47.1025 83.5024 47.1067 79.441C47.1067 66.5548 57.5291 56.1083 70.3849 56.1083C78.982 56.1083 86.4853 60.785 90.5176 67.7346L110.864 55.9907C102.777 41.9976 87.6783 32.5835 70.3849 32.5835C44.5665 32.5835 23.6373 53.5627 23.6373 79.441C23.6373 87.931 25.8906 95.8926 29.8287 102.76C37.8954 116.827 53.0369 126.299 70.3849 126.299C87.7648 126.299 102.93 116.789 110.985 102.68L90.6691 90.8818Z" fill="white"/>
</svg>
